# Blender 4.2.3 LTS
# www.blender.org
mtllib table.mtl.mtl
o TABLE
v -1.370577 0.452143 0.379330
v -1.370577 0.452143 -0.378649
v -1.415585 0.452143 0.000340
v -1.370577 0.529134 -0.378649
v -1.370577 0.529134 0.379330
v -1.415585 0.529134 0.000340
v 1.370577 0.452143 -0.378649
v 1.370577 0.452143 0.379330
v 1.415585 0.452143 0.000340
v 1.370577 0.529134 0.379330
v 1.370577 0.529134 -0.378649
v 1.415585 0.529134 0.000340
v -1.250004 0.452143 0.655797
v -1.302695 0.452143 0.616090
v -1.282546 0.452143 0.644167
v -1.302695 0.529134 0.616090
v -1.250004 0.529134 0.655797
v -1.282546 0.529134 0.644167
v -1.302695 0.452143 -0.615409
v -1.250004 0.452143 -0.655116
v -1.282546 0.452143 -0.643486
v -1.250004 0.529134 -0.655116
v -1.302695 0.529134 -0.615409
v -1.282546 0.529134 -0.643486
v 1.302695 0.452143 0.616090
v 1.250004 0.452143 0.655797
v 1.282546 0.452143 0.644167
v 1.250004 0.529134 0.655797
v 1.302695 0.529134 0.616090
v 1.282546 0.529134 0.644167
v 1.250004 0.452143 -0.655116
v 1.302695 0.452143 -0.615409
v 1.282546 0.452143 -0.643486
v 1.302695 0.529134 -0.615409
v 1.250004 0.529134 -0.655116
v 1.282546 0.529134 -0.643486
v 1.060542 -0.508713 0.458927
v 0.959559 0.474636 0.417490
v 1.060542 -0.508713 0.414413
v 0.959559 0.474636 0.313429
v 1.105057 -0.508713 0.458927
v 1.063620 0.474636 0.417490
v 1.105057 -0.508713 0.414413
v 1.063620 0.474636 0.313429
v -1.060542 -0.508713 0.458927
v -0.959559 0.474636 0.417490
v -1.060542 -0.508713 0.414413
v -0.959559 0.474636 0.313429
v -1.105057 -0.508713 0.458927
v -1.063620 0.474636 0.417490
v -1.105057 -0.508713 0.414413
v -1.063620 0.474636 0.313429
v 1.060542 -0.508713 -0.458246
v 0.959559 0.474636 -0.416809
v 1.060542 -0.508713 -0.413732
v 0.959559 0.474636 -0.312749
v 1.105057 -0.508713 -0.458246
v 1.063620 0.474636 -0.416809
v 1.105057 -0.508713 -0.413732
v 1.063620 0.474636 -0.312749
v -1.060542 -0.508713 -0.458246
v -0.959559 0.474636 -0.416809
v -1.060542 -0.508713 -0.413732
v -0.959559 0.474636 -0.312749
v -1.105057 -0.508713 -0.458246
v -1.063620 0.474636 -0.416809
v -1.105057 -0.508713 -0.413732
v -1.063620 0.474636 -0.312749
v 1.027897 -0.155565 0.392192
v 1.037709 -0.169641 0.392192
v 1.030771 -0.165518 0.392192
v 1.037709 -0.090530 0.392192
v 1.027897 -0.104607 0.392192
v 1.030771 -0.094653 0.392192
v 1.037709 -0.169641 -0.391511
v 1.027897 -0.155565 -0.391511
v 1.030771 -0.165518 -0.391511
v 1.027897 -0.104607 -0.391511
v 1.037709 -0.090530 -0.391511
v 1.030771 -0.094653 -0.391511
v 1.073230 -0.169641 0.392192
v 1.083043 -0.155565 0.392192
v 1.080169 -0.165518 0.392192
v 1.083043 -0.104607 0.392192
v 1.073230 -0.090530 0.392192
v 1.080169 -0.094653 0.392192
v 1.083043 -0.155565 -0.391511
v 1.073230 -0.169641 -0.391511
v 1.080169 -0.165518 -0.391511
v 1.073230 -0.090530 -0.391511
v 1.083043 -0.104607 -0.391511
v 1.080169 -0.094653 -0.391511
v -1.027897 -0.155565 0.392192
v -1.037709 -0.169641 0.392192
v -1.030771 -0.165518 0.392192
v -1.037709 -0.090530 0.392192
v -1.027897 -0.104607 0.392192
v -1.030771 -0.094653 0.392192
v -1.037709 -0.169641 -0.391511
v -1.027897 -0.155565 -0.391511
v -1.030771 -0.165518 -0.391511
v -1.027897 -0.104607 -0.391511
v -1.037709 -0.090530 -0.391511
v -1.030771 -0.094653 -0.391511
v -1.073230 -0.169641 0.392192
v -1.083043 -0.155565 0.392192
v -1.080169 -0.165518 0.392192
v -1.083043 -0.104607 0.392192
v -1.073230 -0.090530 0.392192
v -1.080169 -0.094653 0.392192
v -1.083043 -0.155565 -0.391511
v -1.073230 -0.169641 -0.391511
v -1.080169 -0.165518 -0.391511
v -1.073230 -0.090530 -0.391511
v -1.083043 -0.104607 -0.391511
v -1.080169 -0.094653 -0.391511
v -1.046438 -0.129449 -0.029234
v 1.046438 -0.129448 -0.029235
v -1.046438 -0.155062 -0.014447
v 1.046438 -0.155061 -0.014447
v -1.046438 -0.155062 0.015128
v 1.046438 -0.155061 0.015128
v -1.046438 -0.129449 0.029916
v 1.046438 -0.129448 0.029915
v -1.046438 -0.103836 0.015128
v 1.046438 -0.103836 0.015128
v -1.046438 -0.103836 -0.014447
v 1.046438 -0.103836 -0.014447
v -1.046438 -0.129449 -0.135705
v 1.046438 -0.129448 -0.135705
v -1.046438 -0.155062 -0.120917
v 1.046438 -0.155061 -0.120917
v -1.046438 -0.155062 -0.091342
v 1.046438 -0.155061 -0.091342
v -1.046438 -0.129449 -0.076555
v 1.046438 -0.129448 -0.076555
v -1.046438 -0.103836 -0.091342
v 1.046438 -0.103836 -0.091342
v -1.046438 -0.103836 -0.120917
v 1.046438 -0.103836 -0.120917
v -1.046438 -0.129449 -0.242175
v 1.046438 -0.129448 -0.242175
v -1.046438 -0.155062 -0.227387
v 1.046438 -0.155061 -0.227388
v -1.046438 -0.155062 -0.197812
v 1.046438 -0.155061 -0.197812
v -1.046438 -0.129449 -0.183025
v 1.046438 -0.129448 -0.183025
v -1.046438 -0.103836 -0.197812
v 1.046438 -0.103836 -0.197812
v -1.046438 -0.103836 -0.227387
v 1.046438 -0.103836 -0.227388
v -1.046438 -0.129449 -0.348645
v 1.046438 -0.129449 -0.348645
v -1.046438 -0.155062 -0.333857
v 1.046438 -0.155061 -0.333858
v -1.046438 -0.155062 -0.304282
v 1.046438 -0.155061 -0.304283
v -1.046438 -0.129449 -0.289495
v 1.046438 -0.129449 -0.289495
v -1.046438 -0.103836 -0.304282
v 1.046438 -0.103836 -0.304283
v -1.046438 -0.103836 -0.333857
v 1.046438 -0.103836 -0.333858
v -1.046438 -0.129449 0.288283
v 1.046438 -0.129448 0.288283
v -1.046438 -0.155061 0.303071
v 1.046438 -0.155061 0.303070
v -1.046438 -0.155061 0.332646
v 1.046438 -0.155061 0.332646
v -1.046438 -0.129449 0.347433
v 1.046438 -0.129448 0.347433
v -1.046438 -0.103836 0.332646
v 1.046438 -0.103836 0.332646
v -1.046438 -0.103836 0.303071
v 1.046438 -0.103836 0.303070
v -1.046438 -0.129449 0.181813
v 1.046438 -0.129448 0.181813
v -1.046438 -0.155062 0.196601
v 1.046438 -0.155061 0.196600
v -1.046438 -0.155061 0.226176
v 1.046438 -0.155061 0.226175
v -1.046438 -0.129449 0.240963
v 1.046438 -0.129448 0.240963
v -1.046438 -0.103836 0.226176
v 1.046438 -0.103836 0.226175
v -1.046438 -0.103836 0.196601
v 1.046438 -0.103836 0.196600
v -1.046438 -0.129449 0.075343
v 1.046438 -0.129448 0.075343
v -1.046438 -0.155062 0.090130
v 1.046438 -0.155061 0.090130
v -1.046438 -0.155061 0.119706
v 1.046438 -0.155061 0.119705
v -1.046438 -0.129449 0.134493
v 1.046438 -0.129448 0.134493
v -1.046438 -0.103836 0.119706
v 1.046438 -0.103836 0.119705
v -1.046438 -0.103836 0.090130
v 1.046438 -0.103836 0.090130
vn 0.9803 -0.0000 0.1974
vn 0.9001 -0.0000 0.4357
vn -0.0000 -1.0000 -0.0000
vn -0.1708 -0.0000 -0.9853
vn 0.1708 -0.0000 -0.9853
vn -0.9803 -0.0000 -0.1974
vn -0.9001 -0.0000 -0.4357
vn -0.0000 1.0000 -0.0000
vn 0.9001 -0.0000 -0.4357
vn 0.9803 -0.0000 -0.1974
vn 1.0000 -0.0000 -0.0000
vn -1.0000 -0.0000 -0.0000
vn -0.9803 -0.0000 0.1974
vn 0.1708 -0.0000 0.9853
vn -0.1708 -0.0000 0.9853
vn -0.3365 -0.0000 0.9417
vn -0.8125 -0.0000 0.5830
vn -0.9001 -0.0000 0.4357
vn -0.3365 -0.0000 -0.9417
vn -0.8125 -0.0000 -0.5830
vn 0.8125 -0.0000 -0.5830
vn 0.3365 -0.0000 -0.9417
vn 0.3365 -0.0000 0.9417
vn 0.8125 -0.0000 0.5830
vn -0.9948 -0.1022 -0.0000
vn -0.0000 -0.1022 -0.9948
vn 0.9991 0.0421 -0.0000
vn -0.0000 0.0421 0.9991
vn 0.9948 -0.1022 -0.0000
vn -0.9991 0.0421 -0.0000
vn -0.0000 -0.1022 0.9948
vn -0.0000 0.0421 -0.9991
vn -0.9901 -0.1401 -0.0000
vn -0.9901 0.1401 -0.0000
vn 0.9901 -0.1401 -0.0000
vn 0.9901 0.1401 -0.0000
vn -0.5108 -0.8597 -0.0000
vn -0.9608 -0.2774 -0.0000
vn -0.5108 0.8597 -0.0000
vn -0.9608 0.2774 -0.0000
vn 0.5108 -0.8597 -0.0000
vn 0.9608 -0.2774 -0.0000
vn 0.5108 0.8597 -0.0000
vn 0.9608 0.2774 -0.0000
vn -0.0000 -0.5000 -0.8660
vn -0.0000 -0.5000 0.8660
vn -0.0000 0.5000 0.8660
vn -0.0000 0.5000 -0.8660
vt 0.948234 0.363432
vt 0.948234 0.373308
vt 0.916639 0.373308
vt 0.916639 0.363432
vt 0.656802 0.675831
vt 0.651920 0.682492
vt 0.644035 0.685251
vt 0.038262 0.685251
vt 0.030376 0.682492
vt 0.025494 0.675831
vt 0.009046 0.619663
vt 0.673250 0.619663
vt 0.673251 0.439843
vt 0.009046 0.439843
vt 0.025494 0.383675
vt 0.030376 0.377014
vt 0.038262 0.374255
vt 0.644035 0.374255
vt 0.651920 0.377014
vt 0.656802 0.383675
vt 0.408235 0.363432
vt 0.408235 0.373308
vt 0.087550 0.373307
vt 0.087550 0.363432
vt 0.448695 0.363432
vt 0.448695 0.373308
vt 0.417101 0.373308
vt 0.417101 0.363432
vt 0.009046 0.931605
vt 0.673251 0.931605
vt 0.656802 0.987773
vt 0.651920 0.994434
vt 0.644035 0.997193
vt 0.038262 0.997193
vt 0.030376 0.994434
vt 0.025494 0.987773
vt 0.078684 0.363432
vt 0.078684 0.373307
vt 0.047093 0.373307
vt 0.047093 0.363432
vt 0.025494 0.695618
vt 0.030376 0.688957
vt 0.038262 0.686198
vt 0.644035 0.686198
vt 0.651920 0.688957
vt 0.656802 0.695618
vt 0.673251 0.751786
vt 0.009046 0.751786
vt -0.001860 0.841695
vt 0.684157 0.841695
vt 0.684157 0.529753
vt -0.001860 0.529753
vt 0.997193 0.363432
vt 0.997193 0.373308
vt -0.001860 0.373307
vt -0.001860 0.363432
vt 0.497651 0.363432
vt 0.497651 0.373308
vt 0.546607 0.363432
vt 0.546607 0.373308
vt 0.907772 0.363432
vt 0.907772 0.373308
vt 0.587066 0.373308
vt 0.587066 0.363433
vt 0.582633 0.373308
vt 0.582633 0.363433
vt 0.578200 0.373308
vt 0.578200 0.363433
vt 0.412668 0.363432
vt 0.412668 0.373308
vt 0.083117 0.363432
vt 0.083117 0.373307
vt 0.912205 0.363432
vt 0.912205 0.373308
vt 0.726894 0.239312
vt 0.487982 0.253385
vt 0.485312 0.228792
vt 0.725752 0.228792
vt 1.002161 0.183767
vt 0.762140 0.197897
vt 0.763082 0.173205
vt 1.002564 0.173205
vt 0.742615 0.314430
vt 0.989599 0.314430
vt 0.986900 0.338267
vt 0.741460 0.324627
vt 0.485311 0.062598
vt 0.723933 0.062598
vt 0.724905 0.087270
vt 0.485726 0.073152
vt 0.695890 0.412976
vt 0.695890 0.423536
vt 0.685103 0.423536
vt 0.685103 0.412976
vt 0.731467 0.113717
vt 0.731409 0.123999
vt 0.485311 0.137752
vt 0.485447 0.113717
vt 0.725993 0.270836
vt 0.727141 0.281346
vt 0.487996 0.295404
vt 0.485311 0.270836
vt 0.762572 0.158140
vt 0.762140 0.147586
vt 1.000762 0.147586
vt 1.001772 0.172258
vt 0.485311 0.098720
vt 0.486450 0.088217
vt 0.726235 0.088217
vt 0.723572 0.112770
vt 0.695664 0.374255
vt 0.695664 0.385042
vt 0.685103 0.385041
vt 0.685103 0.374255
vt 0.725545 0.164338
vt 0.725132 0.174909
vt 0.485311 0.189051
vt 0.486277 0.164338
vt 0.725993 0.315394
vt 0.727141 0.325904
vt 0.487996 0.339963
vt 0.485311 0.315394
vt 0.741730 0.248757
vt 0.741461 0.238501
vt 0.987022 0.238501
vt 0.987652 0.262476
vt 0.741461 0.299433
vt 0.742600 0.288930
vt 0.982385 0.288930
vt 0.979722 0.313483
vt 0.685103 0.385988
vt 0.695890 0.385988
vt 0.695890 0.396549
vt 0.685103 0.396549
vt 0.734794 0.200193
vt 0.488500 0.213830
vt 0.485311 0.189998
vt 0.733429 0.189998
vt 0.725332 0.149262
vt 0.485311 0.163391
vt 0.486252 0.138699
vt 0.725735 0.138699
vt 0.742557 0.263423
vt 0.982271 0.263423
vt 0.979708 0.287983
vt 0.741460 0.273929
vt 0.762140 0.121966
vt 1.000763 0.121966
vt 1.001735 0.146639
vt 0.762556 0.132520
vt 0.685103 0.435044
vt 0.685103 0.424483
vt 0.695890 0.424483
vt 0.695890 0.435044
vt 0.996635 0.722499
vt 0.996635 0.736382
vt 0.690344 0.736381
vt 0.690344 0.722499
vt 0.690394 0.766989
vt 0.690394 0.747073
vt 0.996685 0.747073
vt 0.996685 0.766989
vt 0.996585 0.691892
vt 0.996585 0.711807
vt 0.690293 0.711807
vt 0.690293 0.691892
vt 0.996736 0.777681
vt 0.690444 0.777681
vt 0.690414 0.772335
vt 0.996705 0.772335
vt 0.996665 0.741727
vt 0.690374 0.741727
vt 0.690444 0.791563
vt 0.996736 0.791563
vt 0.996766 0.796909
vt 0.690475 0.796909
vt 0.690273 0.686546
vt 0.996565 0.686546
vt 0.690313 0.717153
vt 0.996605 0.717153
vt 0.690357 0.857509
vt 0.996650 0.857509
vt 0.996650 0.871392
vt 0.690357 0.871392
vt 0.996589 0.901999
vt 0.690296 0.902000
vt 0.690296 0.882084
vt 0.996589 0.882083
vt 0.690418 0.826902
vt 0.996711 0.826902
vt 0.996711 0.846818
vt 0.690418 0.846818
vt 0.690479 0.802328
vt 0.690517 0.796982
vt 0.996810 0.796982
vt 0.996772 0.802328
vt 0.690273 0.907345
vt 0.996566 0.907345
vt 0.996612 0.876738
vt 0.690319 0.876738
vt 0.996772 0.816211
vt 0.996733 0.821556
vt 0.690440 0.821557
vt 0.690479 0.816211
vt 0.690395 0.852164
vt 0.996688 0.852164
vt 0.004481 0.098149
vt 0.470998 0.098149
vt 0.471023 0.106292
vt 0.004505 0.106292
vt 0.004358 0.057436
vt 0.470876 0.057436
vt 0.470901 0.065579
vt 0.004383 0.065579
vt 0.470925 0.073721
vt 0.004407 0.073721
vt 0.470950 0.081864
vt 0.004432 0.081864
vt 0.470974 0.090007
vt 0.004456 0.090007
vt 0.004481 0.245351
vt 0.470998 0.245351
vt 0.471023 0.253494
vt 0.004505 0.253494
vt 0.004358 0.204638
vt 0.470876 0.204638
vt 0.470901 0.212781
vt 0.004383 0.212781
vt 0.470925 0.220924
vt 0.004407 0.220924
vt 0.470950 0.229066
vt 0.004432 0.229066
vt 0.470974 0.237209
vt 0.004456 0.237209
vt 0.004481 0.049082
vt 0.470999 0.049082
vt 0.471023 0.057224
vt 0.004505 0.057225
vt 0.004358 0.008369
vt 0.470876 0.008369
vt 0.470901 0.016511
vt 0.004383 0.016511
vt 0.470925 0.024654
vt 0.004407 0.024654
vt 0.470950 0.032797
vt 0.004432 0.032797
vt 0.470974 0.040939
vt 0.004456 0.040939
vt 0.470900 0.310916
vt 0.004383 0.310916
vt 0.004358 0.302773
vt 0.470876 0.302773
vt 0.471023 0.351629
vt 0.004505 0.351629
vt 0.004481 0.343486
vt 0.470998 0.343486
vt 0.004456 0.335344
vt 0.470974 0.335344
vt 0.004432 0.327201
vt 0.470949 0.327201
vt 0.004407 0.319058
vt 0.470925 0.319058
vt 0.470901 0.261848
vt 0.004383 0.261848
vt 0.004358 0.253706
vt 0.470876 0.253706
vt 0.471023 0.302562
vt 0.004505 0.302562
vt 0.004481 0.294419
vt 0.470998 0.294419
vt 0.004456 0.286276
vt 0.470974 0.286276
vt 0.004432 0.278134
vt 0.470950 0.278134
vt 0.004407 0.269991
vt 0.470925 0.269991
vt 0.004481 0.196284
vt 0.470998 0.196284
vt 0.471023 0.204427
vt 0.004505 0.204427
vt 0.004358 0.155571
vt 0.470876 0.155571
vt 0.470901 0.163713
vt 0.004383 0.163713
vt 0.470925 0.171856
vt 0.004407 0.171856
vt 0.470950 0.179999
vt 0.004432 0.179999
vt 0.470974 0.188141
vt 0.004456 0.188141
vt 0.470901 0.114646
vt 0.004383 0.114646
vt 0.004358 0.106503
vt 0.470876 0.106503
vt 0.471023 0.155359
vt 0.004505 0.155359
vt 0.004481 0.147217
vt 0.470998 0.147217
vt 0.004456 0.139074
vt 0.470974 0.139074
vt 0.004432 0.130931
vt 0.470950 0.130931
vt 0.004407 0.122789
vt 0.470925 0.122789
s 1
usemtl TABLE
f 8/1/1 10/2/1 29/3/2 25/4/2
f 19/5/3 21/6/3 20/7/3 31/8/3 33/9/3 32/10/3 7/11/3 2/12/3
f 1/13/3 8/14/3 25/15/3 27/16/3 26/17/3 13/18/3 15/19/3 14/20/3
f 20/21/4 22/22/4 35/23/5 31/24/5
f 2/25/6 4/26/6 23/27/7 19/28/7
f 10/29/8 5/30/8 16/31/8 18/32/8 17/33/8 28/34/8 30/35/8 29/36/8
f 32/37/9 34/38/9 11/39/10 7/40/10
f 34/41/8 36/42/8 35/43/8 22/44/8 24/45/8 23/46/8 4/47/8 11/48/8
f 5/30/8 10/29/8 12/49/8 6/50/8
f 6/50/8 12/49/8 11/48/8 4/47/8
f 8/14/3 1/13/3 3/51/3 9/52/3
f 9/52/3 3/51/3 2/12/3 7/11/3
f 10/2/1 8/1/1 9/53/11 12/54/11
f 12/55/11 9/56/11 7/40/10 11/39/10
f 4/26/6 2/25/6 3/57/12 6/58/12
f 6/58/12 3/57/12 1/59/13 5/60/13
f 26/61/14 28/62/14 17/63/15 13/64/15
f 13/64/15 17/63/15 18/65/16 15/66/16
f 15/66/17 18/65/17 16/67/18 14/68/18
f 22/22/4 20/21/4 21/69/19 24/70/19
f 24/70/20 21/69/20 19/28/7 23/27/7
f 34/38/9 32/37/9 33/71/21 36/72/21
f 36/72/22 33/71/22 31/24/5 35/23/5
f 28/62/14 26/61/14 27/73/23 30/74/23
f 30/74/24 27/73/24 25/4/2 29/3/2
f 14/68/18 16/67/18 5/60/13 1/59/13
f 37/75/25 38/76/25 40/77/25 39/78/25
f 39/79/26 40/80/26 44/81/26 43/82/26
f 43/83/27 44/84/27 42/85/27 41/86/27
f 41/87/28 42/88/28 38/89/28 37/90/28
f 39/91/3 43/92/3 41/93/3 37/94/3
f 45/95/29 47/96/29 48/97/29 46/98/29
f 47/99/26 51/100/26 52/101/26 48/102/26
f 51/103/30 49/104/30 50/105/30 52/106/30
f 49/107/28 45/108/28 46/109/28 50/110/28
f 47/111/3 45/112/3 49/113/3 51/114/3
f 53/115/25 55/116/25 56/117/25 54/118/25
f 55/119/31 59/120/31 60/121/31 56/122/31
f 59/123/27 57/124/27 58/125/27 60/126/27
f 57/127/32 53/128/32 54/129/32 58/130/32
f 55/131/3 53/132/3 57/133/3 59/134/3
f 61/135/29 62/136/29 64/137/29 63/138/29
f 63/139/31 64/140/31 68/141/31 67/142/31
f 67/143/30 68/144/30 66/145/30 65/146/30
f 65/147/32 66/148/32 62/149/32 61/150/32
f 63/151/3 67/152/3 65/153/3 61/154/3
f 90/155/8 79/156/8 72/157/8 85/158/8
f 69/159/33 73/160/34 78/161/34 76/162/33
f 87/163/35 91/164/36 84/165/36 82/166/35
f 75/167/37 70/168/37 71/169/37 77/170/37
f 77/170/38 71/169/38 69/159/33 76/162/33
f 72/157/39 79/156/39 80/171/39 74/172/39
f 74/172/40 80/171/40 78/161/34 73/160/34
f 81/173/41 88/174/41 89/175/41 83/176/41
f 83/177/42 89/178/42 87/163/35 82/166/35
f 90/155/43 85/158/43 86/179/43 92/180/43
f 92/180/44 86/179/44 84/165/36 91/164/36
f 75/167/3 88/174/3 81/173/3 70/168/3
f 114/181/8 109/182/8 96/183/8 103/184/8
f 93/185/35 100/186/35 102/187/36 97/188/36
f 111/189/33 106/190/33 108/191/34 115/192/34
f 99/193/41 101/194/41 95/195/41 94/196/41
f 101/197/42 100/186/35 93/185/35 95/198/42
f 96/183/43 98/199/43 104/200/43 103/184/43
f 98/199/44 97/188/36 102/187/36 104/200/44
f 105/201/37 107/202/37 113/203/37 112/204/37
f 107/202/38 106/190/33 111/189/33 113/203/38
f 114/181/39 116/205/39 110/206/39 109/182/39
f 116/205/40 115/192/34 108/191/34 110/206/40
f 99/193/3 94/196/3 105/201/3 112/204/3
f 117/207/45 118/208/45 120/209/45 119/210/45
f 119/211/3 120/212/3 122/213/3 121/214/3
f 121/214/46 122/213/46 124/215/46 123/216/46
f 123/216/47 124/215/47 126/217/47 125/218/47
f 125/218/8 126/217/8 128/219/8 127/220/8
f 127/220/48 128/219/48 118/208/48 117/207/48
f 129/221/45 130/222/45 132/223/45 131/224/45
f 131/225/3 132/226/3 134/227/3 133/228/3
f 133/228/46 134/227/46 136/229/46 135/230/46
f 135/230/47 136/229/47 138/231/47 137/232/47
f 137/232/8 138/231/8 140/233/8 139/234/8
f 139/234/48 140/233/48 130/222/48 129/221/48
f 141/235/45 142/236/45 144/237/45 143/238/45
f 143/239/3 144/240/3 146/241/3 145/242/3
f 145/242/46 146/241/46 148/243/46 147/244/46
f 147/244/47 148/243/47 150/245/47 149/246/47
f 149/246/8 150/245/8 152/247/8 151/248/8
f 151/248/48 152/247/48 142/236/48 141/235/48
f 153/249/45 154/250/45 156/251/45 155/252/45
f 155/253/3 156/254/3 158/255/3 157/256/3
f 157/256/46 158/255/46 160/257/46 159/258/46
f 159/258/47 160/257/47 162/259/47 161/260/47
f 161/260/8 162/259/8 164/261/8 163/262/8
f 163/262/48 164/261/48 154/250/48 153/249/48
f 165/263/45 166/264/45 168/265/45 167/266/45
f 167/267/3 168/268/3 170/269/3 169/270/3
f 169/270/46 170/269/46 172/271/46 171/272/46
f 171/272/47 172/271/47 174/273/47 173/274/47
f 173/274/8 174/273/8 176/275/8 175/276/8
f 175/276/48 176/275/48 166/264/48 165/263/48
f 177/277/45 178/278/45 180/279/45 179/280/45
f 179/281/3 180/282/3 182/283/3 181/284/3
f 181/284/46 182/283/46 184/285/46 183/286/46
f 183/286/47 184/285/47 186/287/47 185/288/47
f 185/288/8 186/287/8 188/289/8 187/290/8
f 187/290/48 188/289/48 178/278/48 177/277/48
f 189/291/45 190/292/45 192/293/45 191/294/45
f 191/295/3 192/296/3 194/297/3 193/298/3
f 193/298/46 194/297/46 196/299/46 195/300/46
f 195/300/47 196/299/47 198/301/47 197/302/47
f 197/302/8 198/301/8 200/303/8 199/304/8
f 199/304/48 200/303/48 190/292/48 189/291/48
